{"title":"Aadhalal Kadhal Seiveer (2013) - Lotus - 480P - AC3","uid":8983504,"size":931318120,"categoryP":"video","categoryS":"movies","magnet":"?xt=urn:btih:a56e5e537d58cb177e0dd3983d8f337055f26a6e&amp;dn=Aadhalal+Kadhal+Seiveer+%282013%29+-+Lotus+-+480P+-+AC3&amp;tr=udp%3A%2F%2Ftracker.openbittorrent.com%3A80&amp;tr=udp%3A%2F%2Fopen.demonii.com%3A1337&amp;tr=udp%3A%2F%2Ftracker.coppersurfer.tk%3A6969&amp;tr=udp%3A%2F%2Fexodus.desync.com%3A6969","seeders":0,"leechers":1,"uploader":"Hacking_Guys","files":3,"time":1380617332,"description":"[CENTER][B]Aadhalal Kadhal Seiveer (2013) - Lotus - 480P - AC3[/B]\n\n[IMG]http://chennai365.com/wp-content/uploads/Audio-Launch/Aadhalal-Kadhal-Seiveer-Invitation/Aadhalal-Kadhal-Seiveer-Invitation-Stills9696Ww24.jpg[/IMG]\n\n[IMG]http://i.imgur.com/yElgnCZ.png[/IMG]\n\n[code]General\nFormat : Matroska\nFormat version : Version 2\nFile size : 888 MiB\nDuration : 1h 31mn\nOverall bit rate : 1 362 Kbps\nWriting application : PMS Creation 0.0.0\nWriting library : libmkv 0.6.5\n\nVideo\nID : 1\nFormat : AVC\nFormat/Info : Advanced Video Codec\nFormat profile : &lt;a class=&quot;__cf_email__&quot; href=&quot;/cdn-cgi/l/email-protection&quot; data-cfemail=&quot;f6bb979f98b6bac5d8c6&quot;&gt;[email&amp;#160;protected]&lt;/a&gt;&lt;script cf-hash='f9e31' type=&quot;text/javascript&quot;&gt;\n/* &lt;![CDATA[ */!function(){try{var t=&quot;currentScript&quot;in document?document.currentScript:function(){for(var t=document.getElementsByTagName(&quot;script&quot;),e=t.length;e--;)if(t[e].getAttribute(&quot;cf-hash&quot;))return t[e]}();if(t&amp;&amp;t.previousSibling){var e,r,n,i,c=t.previousSibling,a=c.getAttribute(&quot;data-cfemail&quot;);if(a){for(e=&quot;&quot;,r=parseInt(a.substr(0,2),16),n=2;a.length-n;n+=2)i=parseInt(a.substr(n,2),16)^r,e+=String.fromCharCode(i);e=document.createTextNode(e),c.parentNode.replaceChild(e,c)}}}catch(u){}}();/* ]]&gt; */&lt;/script&gt;\nFormat settings, CABAC : Yes\nFormat settings, ReFrames : 4 frames\nCodec ID : V_MPEG4/ISO/AVC\nDuration : 1h 31mn\nBit rate : 1 200 Kbps\nWidth : 720 pixels\nHeight : 480 pixels\nDisplay aspect ratio : 2.35:1\nFrame rate mode : Constant\nFrame rate : 29.970 fps\nStandard : NTSC\nColor space : YUV\nChroma subsampling : 4:2:0\nBit depth : 8 bits\nScan type : Progressive\nBits/(Pixel*Frame) : 0.116\nStream size : 766 MiB (86%)\nWriting library : x264 core 120\nLanguage : English\nDefault : Yes\nForced : No\nColor primaries : BT.601 NTSC\nTransfer characteristics : BT.709\nMatrix coefficients : BT.601\n\nAudio\nID : 2\nFormat : AC-3\nFormat/Info : Audio Coding 3\nFormat profile : Dolby Digital\nMode extension : CM (complete main)\nFormat settings, Endianness : Big\nCodec ID : A_AC3\nDuration : 1h 31mn\nBit rate mode : Constant\nBit rate : 160 Kbps\nChannel(s) : 2 channels\nChannel positions : Front: L R\nSampling rate : 48.0 KHz\nBit depth : 16 bits\nCompression mode : Lossy\nStream size : 104 MiB (12%)\nLanguage : English\nDefault : Yes\nForced : No\n[/code]\n\n[IMG]http://i.imgur.com/WNFEzjW.png[/IMG]\n\n[URL=&quot;http://someimage.com/WwNpnw7&quot;][IMG]http://t1.someimage.com/WwNpnw7.jpg[/IMG][/URL] [URL=&quot;http://someimage.com/IWBMmmC&quot;][IMG]http://t1.someimage.com/IWBMmmC.jpg[/IMG][/URL] [URL=&quot;http://someimage.com/ciIpI8s&quot;][IMG]http://t1.someimage.com/ciIpI8s.jpg[/IMG][/URL] [URL=&quot;http://someimage.com/gib6XYS&quot;][IMG]http://t1.someimage.com/gib6XYS.jpg[/IMG][/URL] [URL=&quot;http://someimage.com/kC8xY6d&quot;][IMG]http://t1.someimage.com/kC8xY6d.jpg[/IMG][/URL] [URL=&quot;http://someimage.com/zCa7oBK&quot;][IMG]http://t1.someimage.com/zCa7oBK.jpg[/IMG][/URL] [URL=&quot;http://someimage.com/BOdDXLT&quot;][IMG]http://t1.someimage.com/BOdDXLT.jpg[/IMG][/URL] [URL=&quot;http://someimage.com/vJcCSdy&quot;][IMG]http://t1.someimage.com/vJcCSdy.jpg[/IMG][/URL] [URL=&quot;http://someimage.com/F2hQuge&quot;][IMG]http://t1.someimage.com/F2hQuge.jpg[/IMG][/URL] [URL=&quot;http://someimage.com/jciIFiG&quot;][IMG]http://t1.someimage.com/jciIFiG.jpg[/IMG][/URL] [URL=&quot;http://someimage.com/TKglpjP&quot;][IMG]http://t1.someimage.com/TKglpjP.jpg[/IMG][/URL] [URL=&quot;http://someimage.com/cUzxuBZ&quot;][IMG]http://t1.someimage.com/cUzxuBZ.jpg[/IMG][/URL] [URL=&quot;http://someimage.com/cEoIxwo&quot;][IMG]http://t1.someimage.com/cEoIxwo.jpg[/IMG][/URL] [URL=&quot;http://someimage.com/RCt1FBz&quot;][IMG]http://t1.someimage.com/RCt1FBz.jpg[/IMG][/URL] [URL=&quot;http://someimage.com/aJ5Ukc5&quot;][IMG]http://t1.someimage.com/aJ5Ukc5.jpg[/IMG][/URL] [URL=&quot;http://someimage.com/zmLB6aZ&quot;][IMG]http://t1.someimage.com/zmLB6aZ.jpg[/IMG][/URL] [URL=&quot;http://someimage.com/rBPu632&quot;][IMG]http://t1.someimage.com/rBPu632.jpg[/IMG][/URL] [URL=&quot;http://someimage.com/tqhbSA2&quot;][IMG]http://t1.someimage.com/tqhbSA2.jpg[/IMG][/URL] [URL=&quot;http://someimage.com/o1roBn9&quot;][IMG]http://t1.someimage.com/o1roBn9.jpg[/IMG][/URL] [URL=&quot;http://someimage.com/Mq5cCGD&quot;][IMG]http://t1.someimage.com/Mq5cCGD.jpg[/IMG][/URL] [URL=&quot;http://someimage.com/zGtQ88b&quot;][IMG]http://t1.someimage.com/zGtQ88b.jpg[/IMG][/URL] [URL=&quot;http://someimage.com/423oibp&quot;][IMG]http://t1.someimage.com/423oibp.jpg[/IMG][/URL] [URL=&quot;http://someimage.com/1CifuAu&quot;][IMG]http://t1.someimage.com/1CifuAu.jpg[/IMG][/URL] [URL=&quot;http://someimage.com/VOtx4oA&quot;][IMG]http://t1.someimage.com/VOtx4oA.jpg[/IMG][/URL] \n\n[/CENTER]","torrent":{"xt":"urn:btih:a56e5e537d58cb177e0dd3983d8f337055f26a6e","amp;dn":"Aadhalal+Kadhal+Seiveer+%282013%29+-+Lotus+-+480P+-+AC3","amp;tr":["udp%3A%2F%2Ftracker.openbittorrent.com%3A80","udp%3A%2F%2Fopen.demonii.com%3A1337","udp%3A%2F%2Ftracker.coppersurfer.tk%3A6969","udp%3A%2F%2Fexodus.desync.com%3A6969"],"infoHash":"a56e5e537d58cb177e0dd3983d8f337055f26a6e","infoHashBuffer":{"type":"Buffer","data":[165,110,94,83,125,88,203,23,126,13,211,152,61,143,51,112,85,242,106,110]},"announce":[],"urlList":[]}}